<svg width="158" height="30" viewBox="0 0 158 30" fill="none" xmlns="http://www.w3.org/2000/svg">
<rect x="6.5" y="8.5" width="151" height="21" fill="#FFF2CA"/>
<rect x="6.5" y="8.5" width="151" height="21" stroke="#989890"/>
<rect x="0.5" y="0.5" width="151" height="21" fill="#FCFFF4"/>
<rect x="0.5" y="0.5" width="151" height="21" stroke="#989890"/>
<path d="M54.7969 4.625H56.2578L59.9844 13.8984L63.7031 4.625H65.1719L60.5469 16H59.4062L54.7969 4.625ZM54.3203 4.625H55.6094L55.8203 11.5625V16H54.3203V4.625ZM64.3516 4.625H65.6406V16H64.1406V11.5625L64.3516 4.625ZM75.5156 14.7734V16H69.4922V14.7734H75.5156ZM69.7969 4.625V16H68.2891V4.625H69.7969ZM74.7188 9.51562V10.7422H69.4922V9.51562H74.7188ZM75.4375 4.625V5.85938H69.4922V4.625H75.4375ZM86.1328 4.625V16H84.6172L78.8906 7.22656V16H77.3828V4.625H78.8906L84.6406 13.4219V4.625H86.1328ZM95.3125 4.625H96.8125V12.3203C96.8125 13.1745 96.6224 13.8854 96.2422 14.4531C95.862 15.0208 95.3568 15.4479 94.7266 15.7344C94.1016 16.0156 93.4219 16.1562 92.6875 16.1562C91.9167 16.1562 91.2188 16.0156 90.5938 15.7344C89.974 15.4479 89.4818 15.0208 89.1172 14.4531C88.7578 13.8854 88.5781 13.1745 88.5781 12.3203V4.625H90.0703V12.3203C90.0703 12.9141 90.1797 13.4036 90.3984 13.7891C90.6172 14.1745 90.9219 14.4609 91.3125 14.6484C91.7083 14.8359 92.1667 14.9297 92.6875 14.9297C93.2135 14.9297 93.6719 14.8359 94.0625 14.6484C94.4583 14.4609 94.7656 14.1745 94.9844 13.7891C95.2031 13.4036 95.3125 12.9141 95.3125 12.3203V4.625Z" fill="#696061"/>
</svg>
