<svg width="130" height="89" viewBox="0 0 130 89" fill="none" xmlns="http://www.w3.org/2000/svg">
<path fill-rule="evenodd" clip-rule="evenodd" d="M58.556 16.3383C84.9825 8.98969 116.557 9.57367 121.806 28.45C127.094 47.4665 100.684 64.6961 74.0618 72.0992C46.7364 79.6978 13.873 79.4913 8.44534 59.9729C3.05567 40.5909 31.4217 23.8837 58.556 16.3383Z" fill="#FBF7B8"/>
<path d="M39.5691 50.5382L38.6117 50.8044L36.8907 44.6154C36.7785 44.2117 36.7564 43.8518 36.8246 43.5355C36.8952 43.2148 37.0489 42.9454 37.2855 42.7272C37.5212 42.5056 37.8288 42.342 38.2083 42.2365C38.3187 42.2058 38.431 42.182 38.5452 42.1651C38.6629 42.1472 38.7791 42.1372 38.8937 42.1351L39.0592 42.9308C38.982 42.9337 38.8958 42.9447 38.8008 42.9637C38.7091 42.9817 38.6185 43.0032 38.5288 43.0282C38.3253 43.0848 38.1608 43.1751 38.0355 43.2991C37.9127 43.4188 37.8349 43.5668 37.8022 43.7431C37.7694 43.9195 37.7847 44.1215 37.8481 44.3492L39.5691 50.5382ZM39.2023 44.6081L39.4066 45.3429L36.3742 46.1862L36.1699 45.4514L39.2023 44.6081ZM41.4702 44.9252L42.7826 49.6446L41.8253 49.9108L40.2683 44.3117L41.1997 44.0527L41.4702 44.9252ZM42.966 43.5281L43.2084 44.4196C43.1242 44.4244 43.0455 44.4351 42.9721 44.4518C42.9011 44.4641 42.8208 44.4827 42.7311 44.5077C42.5103 44.5691 42.325 44.6578 42.1752 44.7738C42.0253 44.8898 41.909 45.0262 41.8262 45.183C41.7435 45.3398 41.6916 45.514 41.6706 45.7057C41.652 45.893 41.6607 46.0913 41.6966 46.3006L41.4707 46.5306C41.3767 46.1926 41.3212 45.8661 41.3042 45.5511C41.2907 45.2353 41.323 44.9438 41.4012 44.6768C41.4783 44.4063 41.6078 44.1771 41.7897 43.989C41.974 43.7965 42.218 43.658 42.5216 43.5736C42.5906 43.5544 42.6723 43.541 42.7668 43.5333C42.8603 43.5222 42.9267 43.5204 42.966 43.5281ZM47.6653 48.3983C47.2754 48.5067 46.9036 48.5395 46.5498 48.4967C46.1984 48.4494 45.8753 48.3367 45.5805 48.1585C45.2891 47.9794 45.037 47.741 44.8241 47.4434C44.6113 47.1458 44.4502 46.8004 44.3408 46.4071L44.2804 46.1897C44.1538 45.7344 44.1083 45.3103 44.1441 44.9176C44.1788 44.5214 44.2773 44.1669 44.4393 43.8543C44.6014 43.5416 44.8113 43.2807 45.069 43.0715C45.3268 42.8623 45.6126 42.7141 45.9266 42.6268C46.3267 42.5155 46.6909 42.4886 47.0191 42.546C47.3507 42.6024 47.6442 42.7289 47.8995 42.9255C48.1539 43.1187 48.3725 43.3701 48.5552 43.6798C48.737 43.986 48.8826 44.3358 48.992 44.729L49.1114 45.1585L44.9302 46.3212L44.7129 45.5399L47.9368 44.6434L47.9166 44.5709C47.8338 44.3264 47.7149 44.0993 47.5599 43.8896C47.4085 43.679 47.2168 43.5242 46.9848 43.4252C46.7529 43.3261 46.473 43.3222 46.1453 43.4133C45.9279 43.4738 45.7408 43.576 45.5839 43.72C45.426 43.8605 45.3064 44.0387 45.2252 44.2545C45.144 44.4704 45.1031 44.7178 45.1026 44.9966C45.1021 45.2755 45.1489 45.584 45.2429 45.9221L45.3033 46.1394C45.3772 46.4051 45.483 46.6451 45.6207 46.8595C45.7608 47.0696 45.9261 47.2429 46.1165 47.3795C46.3103 47.5152 46.5229 47.6047 46.7542 47.6482C46.9891 47.6906 47.2376 47.6754 47.4997 47.6025C47.8378 47.5085 48.105 47.3599 48.3012 47.1567C48.4974 46.9534 48.6513 46.7118 48.763 46.4317L49.4707 46.7311C49.4008 46.9475 49.2957 47.1644 49.1554 47.3818C49.0152 47.5992 48.8232 47.7976 48.5794 47.9768C48.3391 48.1552 48.0344 48.2957 47.6653 48.3983ZM53.2851 46.8356C52.8952 46.944 52.5234 46.9768 52.1695 46.9339C51.8182 46.8867 51.4951 46.774 51.2003 46.5958C50.9089 46.4167 50.6568 46.1783 50.4439 45.8807C50.2311 45.5831 50.07 45.2376 49.9606 44.8444L49.9002 44.627C49.7736 44.1716 49.7281 43.7476 49.7638 43.3548C49.7986 42.9586 49.897 42.6042 50.0591 42.2915C50.2212 41.9789 50.4311 41.718 50.6888 41.5088C50.9466 41.2996 51.2324 41.1513 51.5463 41.064C51.9465 40.9528 52.3107 40.9258 52.6388 40.9832C52.9704 41.0397 53.2639 41.1662 53.5193 41.3628C53.7737 41.5559 53.9923 41.8073 54.175 42.117C54.3568 42.4233 54.5024 42.773 54.6117 43.1663L54.7312 43.5958L50.55 44.7585L50.3327 43.9771L53.5566 43.0806L53.5364 43.0082C53.4536 42.7636 53.3347 42.5365 53.1797 42.3269C53.0282 42.1163 52.8365 41.9615 52.6046 41.8624C52.3726 41.7634 52.0928 41.7595 51.7651 41.8506C51.5477 41.911 51.3606 42.0133 51.2036 42.1572C51.0457 42.2978 50.9262 42.476 50.845 42.6918C50.7638 42.9077 50.7229 43.155 50.7224 43.4339C50.7219 43.7128 50.7687 44.0213 50.8627 44.3594L50.9231 44.5767C50.997 44.8423 51.1028 45.0824 51.2404 45.2968C51.3806 45.5069 51.5459 45.6802 51.7362 45.8168C51.9301 45.9524 52.1427 46.042 52.374 46.0854C52.6088 46.1279 52.8573 46.1127 53.1195 46.0398C53.4576 45.9458 53.7247 45.7972 53.921 45.5939C54.1172 45.3907 54.2711 45.1491 54.3828 44.869L55.0904 45.1684C55.0205 45.3848 54.9155 45.6017 54.7752 45.8191C54.635 46.0365 54.443 46.2348 54.1992 46.4141C53.9589 46.5924 53.6542 46.7329 53.2851 46.8356ZM62.4083 43.0164L60.5003 36.1547L61.4628 35.887L63.673 43.8354L62.7933 44.0801L62.4083 43.0164ZM58.1821 42.4132L58.1519 42.3045C58.0329 41.8768 57.9768 41.4743 57.9834 41.0971C57.9925 40.7154 58.0586 40.3718 58.1817 40.0663C58.3083 39.7598 58.4875 39.5018 58.7192 39.2924C58.9533 39.0787 59.2377 38.9253 59.5724 38.8322C59.9242 38.7343 60.2485 38.7111 60.5453 38.7624C60.8445 38.8092 61.1181 38.9245 61.3662 39.1083C61.6168 39.2876 61.8411 39.5263 62.0392 39.8243C62.2372 40.1223 62.4145 40.4725 62.5711 40.875L62.7034 41.3511C62.7797 41.7721 62.8081 42.1619 62.7889 42.5203C62.7731 42.8778 62.7041 43.198 62.5821 43.4809C62.4636 43.7629 62.2887 44.0029 62.0576 44.201C61.8256 44.3956 61.5319 44.5423 61.1765 44.6411C60.8488 44.7323 60.529 44.745 60.2171 44.6794C59.9087 44.6127 59.6207 44.4791 59.3531 44.2785C59.0889 44.077 58.8554 43.8186 58.6525 43.5033C58.4521 43.1837 58.2953 42.8203 58.1821 42.4132ZM59.1144 42.0369L59.1446 42.1456C59.2223 42.425 59.3228 42.6795 59.4461 42.9091C59.5729 43.1377 59.7225 43.3284 59.8951 43.4811C60.0676 43.6338 60.2619 43.7378 60.4779 43.7929C60.693 43.8446 60.9299 43.8345 61.1887 43.7625C61.506 43.6743 61.7478 43.5346 61.9139 43.3434C62.0835 43.1513 62.1997 42.9276 62.2625 42.6723C62.3253 42.4169 62.3552 42.1503 62.3523 41.8724L62.0055 40.6253C61.9113 40.4471 61.8001 40.281 61.6718 40.1271C61.546 39.9688 61.4019 39.838 61.2393 39.7345C61.0792 39.6266 60.898 39.5563 60.6956 39.5233C60.4966 39.4895 60.2764 39.5061 60.0349 39.5733C59.7727 39.6462 59.5621 39.7642 59.403 39.9274C59.2465 40.0861 59.1342 40.2771 59.0662 40.5005C58.9973 40.7203 58.968 40.9626 58.9785 41.2273C58.9914 41.4876 59.0367 41.7575 59.1144 42.0369ZM67.5156 42.8784C67.1258 42.9868 66.7539 43.0196 66.4001 42.9767C66.0488 42.9295 65.7257 42.8168 65.4308 42.6386C65.1394 42.4595 64.8873 42.2211 64.6745 41.9235C64.4616 41.6259 64.3005 41.2805 64.1912 40.8872L64.1307 40.6698C64.0041 40.2145 63.9587 39.7904 63.9944 39.3977C64.0292 39.0015 64.1276 38.647 64.2897 38.3344C64.4517 38.0217 64.6616 37.7608 64.9194 37.5516C65.1771 37.3424 65.4629 37.1942 65.7769 37.1069C66.1771 36.9956 66.5412 36.9687 66.8694 37.0261C67.201 37.0825 67.4945 37.209 67.7498 37.4056C68.0042 37.5988 68.2228 37.8502 68.4056 38.1599C68.5874 38.4661 68.7329 38.8159 68.8423 39.2091L68.9617 39.6386L64.7805 40.8013L64.5633 40.0199L67.7871 39.1235L67.767 39.051C67.6841 38.8065 67.5652 38.5794 67.4103 38.3697C67.2588 38.1591 67.0671 38.0043 66.8351 37.9053C66.6032 37.8062 66.3233 37.8023 65.9956 37.8934C65.7783 37.9539 65.5911 38.0561 65.4342 38.2001C65.2763 38.3406 65.1567 38.5188 65.0755 38.7346C64.9943 38.9505 64.9535 39.1979 64.953 39.4767C64.9525 39.7556 64.9992 40.0641 65.0932 40.4022L65.1537 40.6195C65.2275 40.8852 65.3333 41.1252 65.471 41.3396C65.6112 41.5497 65.7764 41.723 65.9668 41.8596C66.1606 41.9953 66.3732 42.0848 66.6046 42.1283C66.8394 42.1707 67.0879 42.1555 67.3501 42.0826C67.6881 41.9886 67.9553 41.84 68.1515 41.6368C68.3477 41.4335 68.5017 41.1919 68.6133 40.9118L69.321 41.2112C69.2511 41.4276 69.146 41.6445 69.0058 41.8619C68.8655 42.0793 68.6735 42.2777 68.4298 42.4569C68.1895 42.6353 67.8847 42.7758 67.5156 42.8784ZM69.613 33.6206L71.8233 41.569L70.8608 41.8367L68.6505 33.8883L69.613 33.6206ZM72.8433 35.2534L74.4003 40.8524L73.4378 41.1201L71.8808 35.521L72.8433 35.2534ZM71.3954 34.056C71.3522 33.9008 71.3623 33.7567 71.4257 33.6239C71.4926 33.4901 71.6192 33.3973 71.8055 33.3455C71.9883 33.2946 72.1429 33.3092 72.2692 33.3893C72.399 33.4684 72.4855 33.5856 72.5287 33.7409C72.5699 33.8892 72.5554 34.0308 72.4851 34.1655C72.4173 34.2959 72.2919 34.3865 72.1091 34.4373C71.9228 34.4891 71.767 34.4767 71.6416 34.4001C71.5187 34.319 71.4366 34.2043 71.3954 34.056ZM77.3994 39.0875L77.6144 33.9266L78.5925 33.6547L78.1365 39.8135L77.4948 39.9919L77.3994 39.0875ZM74.8045 34.708L77.7067 39.0299L78.0485 39.838L77.4068 40.0164L73.8213 34.9814L74.8045 34.708ZM83.3503 38.4751C82.9605 38.5835 82.5887 38.6163 82.2348 38.5735C81.8835 38.5262 81.5604 38.4135 81.2655 38.2354C80.9742 38.0562 80.722 37.8179 80.5092 37.5202C80.2964 37.2226 80.1353 36.8772 80.0259 36.4839L79.9655 36.2666C79.8388 35.8112 79.7934 35.3871 79.8291 34.9944C79.8639 34.5982 79.9623 34.2438 80.1244 33.9311C80.2864 33.6184 80.4964 33.3575 80.7541 33.1483C81.0118 32.9391 81.2977 32.7909 81.6116 32.7036C82.0118 32.5923 82.376 32.5654 82.7041 32.6228C83.0357 32.6793 83.3292 32.8058 83.5846 33.0024C83.839 33.1955 84.0575 33.4469 84.2403 33.7566C84.4221 34.0628 84.5677 34.4126 84.677 34.8059L84.7965 35.2354L80.6153 36.3981L80.398 35.6167L83.6218 34.7202L83.6017 34.6478C83.5188 34.4032 83.3999 34.1761 83.245 33.9665C83.0935 33.7559 82.9018 33.601 82.6699 33.502C82.4379 33.403 82.1581 33.399 81.8303 33.4902C81.613 33.5506 81.4259 33.6528 81.2689 33.7968C81.111 33.9373 80.9915 34.1155 80.9103 34.3314C80.829 34.5472 80.7882 34.7946 80.7877 35.0735C80.7872 35.3524 80.8339 35.6608 80.928 35.9989L80.9884 36.2163C81.0623 36.4819 81.168 36.7219 81.3057 36.9364C81.4459 37.1464 81.6112 37.3197 81.8015 37.4564C81.9953 37.592 82.2079 37.6815 82.4393 37.725C82.6741 37.7675 82.9226 37.7523 83.1848 37.6794C83.5229 37.5853 83.79 37.4367 83.9862 37.2335C84.1825 37.0303 84.3364 36.7886 84.4481 36.5086L85.1557 36.808C85.0858 37.0244 84.9807 37.2413 84.8405 37.4587C84.7002 37.6761 84.5082 37.8744 84.2645 38.0537C84.0242 38.232 83.7195 38.3725 83.3503 38.4751ZM86.2628 32.4694L87.5752 37.1888L86.6179 37.455L85.0609 31.8559L85.9923 31.5969L86.2628 32.4694ZM87.7587 31.0723L88.001 31.9638C87.9168 31.9686 87.8381 31.9794 87.7647 31.9961C87.6937 32.0084 87.6134 32.027 87.5237 32.0519C87.303 32.1133 87.1176 32.202 86.9678 32.318C86.8179 32.434 86.7016 32.5704 86.6189 32.7272C86.5361 32.884 86.4842 33.0583 86.4632 33.25C86.4446 33.4372 86.4533 33.6355 86.4892 33.8448L86.2633 34.0749C86.1693 33.7368 86.1138 33.4103 86.0968 33.0954C86.0833 32.7795 86.1156 32.4881 86.1938 32.2211C86.2709 31.9506 86.4005 31.7213 86.5823 31.5332C86.7666 31.3407 87.0106 31.2023 87.3142 31.1179C87.3832 31.0987 87.4649 31.0852 87.5594 31.0775C87.6529 31.0664 87.7194 31.0647 87.7587 31.0723ZM91.7142 35.4134L91.876 29.9608L92.9006 29.6759L92.4521 36.7637C92.4387 36.9161 92.411 37.0836 92.3688 37.2663C92.3311 37.4514 92.2669 37.6347 92.1761 37.816C92.0853 37.9974 91.9592 38.1588 91.7978 38.3003C91.6409 38.4443 91.4348 38.5518 91.1795 38.6228C91.1036 38.6439 91.0041 38.6604 90.8811 38.6723C90.758 38.6842 90.6704 38.69 90.6183 38.6896L90.3973 37.9148C90.4258 37.9106 90.4699 37.9021 90.5295 37.8892C90.5935 37.8789 90.6376 37.8703 90.6618 37.8636C90.8791 37.8032 91.0555 37.7225 91.191 37.6217C91.3275 37.5242 91.4287 37.3939 91.4948 37.2306C91.5653 37.0697 91.6063 36.8632 91.618 36.6109L91.7142 35.4134ZM89.1748 30.712L91.8377 34.6544L92.3666 35.5944L91.7763 36.1377L88.1295 31.0026L89.1748 30.712ZM42.2482 60.1726L41.2908 60.4388L39.5698 54.2498C39.4576 53.8462 39.4355 53.4862 39.5037 53.17C39.5743 52.8493 39.728 52.5798 39.9646 52.3616C40.2003 52.14 40.5079 51.9764 40.8874 51.8709C40.9978 51.8402 41.1101 51.8164 41.2243 51.7995C41.342 51.7816 41.4582 51.7716 41.5728 51.7695L41.7383 52.5653C41.6611 52.5682 41.5749 52.5791 41.4799 52.5981C41.3883 52.6162 41.2976 52.6377 41.2079 52.6626C41.0044 52.7192 40.8399 52.8095 40.7146 52.9336C40.5918 53.0532 40.514 53.2012 40.4813 53.3776C40.4486 53.5539 40.4638 53.7559 40.5272 53.9836L42.2482 60.1726ZM41.8814 54.2426L42.0857 54.9774L39.0533 55.8206L38.849 55.0858L41.8814 54.2426ZM44.1493 54.5596L45.4617 59.279L44.5044 59.5452L42.9474 53.9461L43.8788 53.6871L44.1493 54.5596ZM45.6452 53.1625L45.8875 54.054C45.8033 54.0588 45.7246 54.0696 45.6512 54.0863C45.5802 54.0986 45.4999 54.1172 45.4102 54.1421C45.1895 54.2035 45.0041 54.2922 44.8543 54.4082C44.7044 54.5242 44.5881 54.6606 44.5054 54.8174C44.4226 54.9742 44.3707 55.1485 44.3497 55.3402C44.3311 55.5274 44.3398 55.7257 44.3757 55.935L44.1498 56.1651C44.0558 55.827 44.0003 55.5005 43.9833 55.1856C43.9698 54.8697 44.0021 54.5783 44.0803 54.3112C44.1574 54.0408 44.287 53.8115 44.4688 53.6234C44.6531 53.4309 44.8971 53.2925 45.2007 53.2081C45.2697 53.1889 45.3514 53.1754 45.4459 53.1677C45.5394 53.1566 45.6059 53.1548 45.6452 53.1625ZM46.9774 55.9084L46.9443 55.7894C46.832 55.3858 46.7866 54.9951 46.808 54.6175C46.8284 54.2365 46.9135 53.8876 47.0633 53.5709C47.2121 53.2508 47.4238 52.9764 47.6984 52.7476C47.9721 52.5154 48.3038 52.3451 48.6936 52.2367C49.0869 52.1274 49.4607 52.1015 49.8149 52.1591C50.1716 52.2123 50.4963 52.3375 50.7891 52.5349C51.0843 52.7278 51.339 52.9822 51.5532 53.298C51.7664 53.6104 51.9292 53.9684 52.0414 54.372L52.0745 54.491C52.1867 54.8947 52.2322 55.2853 52.2108 55.6629C52.1894 56.0405 52.1026 56.3898 51.9503 56.7109C51.8005 57.0276 51.5888 57.302 51.3152 57.5342C51.044 57.762 50.7118 57.9306 50.3185 58.0399C49.9252 58.1493 49.552 58.1769 49.1987 58.1228C48.8445 58.0652 48.5197 57.9399 48.2245 57.747C47.9318 57.5496 47.6788 57.2948 47.4656 56.9824C47.2523 56.67 47.0896 56.312 46.9774 55.9084ZM47.9016 55.5232L47.9347 55.6422C48.0124 55.9216 48.1186 56.1764 48.2532 56.4066C48.3868 56.6333 48.5456 56.8233 48.7294 56.9766C48.9168 57.1289 49.1258 57.2325 49.3566 57.2872C49.5864 57.3385 49.8341 57.3272 50.0998 57.2534C50.362 57.1805 50.5765 57.0632 50.7434 56.9016C50.9128 56.7355 51.0367 56.5394 51.115 56.3132C51.1933 56.087 51.2312 55.8424 51.2287 55.5792C51.2286 55.3116 51.1897 55.0381 51.112 54.7587L51.0789 54.6397C51.0021 54.3637 50.8952 54.1128 50.7581 53.887C50.6235 53.6569 50.4625 53.4656 50.2752 53.3133C50.0904 53.1566 49.8826 53.0508 49.6518 52.9961C49.4245 52.9404 49.178 52.9494 48.9124 53.0233C48.6502 53.0962 48.4344 53.2157 48.265 53.3817C48.099 53.5468 47.9757 53.7446 47.8948 53.9752C47.8165 54.2014 47.7791 54.4478 47.7826 54.7145C47.7852 54.9776 47.8248 55.2472 47.9016 55.5232ZM53.7408 52.1433L54.9884 56.6299L54.0259 56.8975L52.4689 51.2984L53.3797 51.0452L53.7408 52.1433ZM53.9543 53.6728L53.5049 53.7811C53.4019 53.3972 53.3536 53.0296 53.36 52.6785C53.3655 52.3239 53.4295 51.9995 53.5521 51.7052C53.6747 51.411 53.8592 51.159 54.1056 50.9492C54.3511 50.736 54.6601 50.5776 55.0327 50.474C55.2949 50.4011 55.5469 50.3719 55.7888 50.3864C56.0298 50.3974 56.2534 50.4598 56.4596 50.5734C56.6659 50.687 56.8484 50.8555 57.0072 51.0789C57.1659 51.3024 57.2943 51.5901 57.3921 51.9419L58.4296 55.6729L57.4723 55.9391L56.4477 52.2547C56.3662 51.9615 56.2509 51.7408 56.102 51.5927C55.9564 51.4436 55.783 51.3543 55.5815 51.3249C55.3791 51.292 55.1571 51.3091 54.9156 51.3762C54.6328 51.4549 54.4104 51.5706 54.2484 51.7234C54.0865 51.8763 53.9731 52.0565 53.9082 52.2641C53.8433 52.4717 53.8166 52.6965 53.8281 52.9386C53.8422 53.1762 53.8842 53.421 53.9543 53.6728ZM57.435 52.1363L56.848 52.5114C56.7661 52.2034 56.7341 51.8945 56.752 51.5847C56.7734 51.274 56.8465 50.9824 56.9714 50.7098C57.0998 50.4362 57.2842 50.1973 57.5247 49.9929C57.7642 49.785 58.0616 49.6317 58.417 49.5329C58.7171 49.4495 58.9938 49.4153 59.247 49.4303C59.5036 49.4444 59.7343 49.5122 59.9391 49.6337C60.1463 49.7507 60.3268 49.9254 60.4806 50.1577C60.6344 50.3899 60.7602 50.682 60.8581 51.0339L61.8812 54.7131L60.9187 54.9808L59.8927 51.2912C59.8054 50.9773 59.6877 50.748 59.5397 50.6033C59.3942 50.4542 59.2221 50.3701 59.0236 50.351C58.8275 50.3275 58.607 50.3498 58.362 50.4179C58.1516 50.4764 57.9754 50.5644 57.8334 50.682C57.6914 50.7995 57.5829 50.9374 57.508 51.0958C57.4322 51.2507 57.3875 51.4173 57.3739 51.5958C57.3638 51.7733 57.3842 51.9534 57.435 52.1363ZM66.2823 44.0566L66.7211 45.6349L65.9449 45.8507L65.506 44.2724L66.2823 44.0566ZM68.539 52.5328L68.9232 53.9145L68.1521 54.1289L67.7679 52.7473L68.539 52.5328ZM69.1192 50.6098C69.0616 50.4028 68.9633 50.2295 68.8241 50.0898C68.6849 49.9501 68.4891 49.841 68.2369 49.7625C67.9846 49.684 67.6628 49.636 67.2714 49.6184C66.7993 49.6048 66.3777 49.5455 66.0066 49.4405C65.6389 49.3346 65.3291 49.1625 65.0769 48.9241C64.8283 48.6848 64.6473 48.3616 64.5341 47.9545C64.4161 47.5302 64.4059 47.1391 64.5033 46.7812C64.6008 46.4233 64.7938 46.1151 65.0824 45.8564C65.371 45.5978 65.7413 45.4056 66.1932 45.28C66.5451 45.1821 66.8739 45.1483 67.1796 45.1785C67.4844 45.2052 67.7604 45.2957 68.0077 45.4499C68.2584 45.6032 68.4756 45.816 68.6591 46.0883C68.846 46.3597 68.9942 46.692 69.1036 47.0853L68.1514 47.35C68.0871 47.1189 68.0005 46.9144 67.8916 46.7366C67.7827 46.5587 67.6534 46.4144 67.5036 46.3037C67.353 46.1895 67.1877 46.1165 67.0079 46.0848C66.8272 46.0495 66.6333 46.0607 66.4263 46.1183C66.1365 46.1988 65.9107 46.3155 65.7487 46.4683C65.5903 46.6202 65.4916 46.8 65.4528 47.0078C65.4129 47.2121 65.4261 47.4333 65.4923 47.6714C65.5537 47.8921 65.6523 48.0729 65.788 48.2135C65.9238 48.3542 66.1173 48.462 66.3686 48.5371C66.6224 48.6077 66.9568 48.6541 67.3718 48.6762C67.8561 48.6939 68.2804 48.7562 68.6446 48.8631C69.0079 48.9665 69.3094 49.1353 69.5492 49.3697C69.7881 49.6006 69.9647 49.9213 70.0788 50.3318C70.2026 50.7769 70.2071 51.1807 70.0924 51.5434C69.9767 51.9026 69.7598 52.2119 69.4417 52.4714C69.1236 52.7308 68.7213 52.9281 68.2349 53.0634C67.9417 53.1449 67.6409 53.1858 67.3325 53.1861C67.0241 53.1864 66.7294 53.129 66.4483 53.0139C66.1663 52.8953 65.9151 52.7068 65.6946 52.4485C65.4732 52.1868 65.302 51.8385 65.1811 51.4039L66.1436 51.1362C66.2252 51.4295 66.3342 51.6612 66.4707 51.8313C66.6097 51.9971 66.7658 52.1172 66.9389 52.1917C67.111 52.2628 67.2883 52.299 67.4708 52.3003C67.6558 52.2971 67.8328 52.2721 68.0018 52.2251C68.3123 52.1387 68.561 52.0175 68.7481 51.8615C68.9376 51.701 69.0639 51.5135 69.1269 51.299C69.1899 51.0845 69.1873 50.8548 69.1192 50.6098ZM76.5347 49.791L76.7534 50.5775L71.8219 51.9489L71.6305 51.2606L73.3347 47.8264C73.5443 47.4039 73.6993 47.0524 73.7996 46.7717C73.9025 46.4867 73.9608 46.2419 73.9745 46.0374C73.9907 45.8285 73.9715 45.6257 73.9168 45.429C73.8478 45.1807 73.7337 44.9708 73.5745 44.7995C73.4179 44.6238 73.2245 44.5029 72.9942 44.4368C72.764 44.3708 72.5092 44.3766 72.2298 44.4543C71.8951 44.5473 71.6339 44.6906 71.4461 44.884C71.2608 45.0731 71.1451 45.2985 71.099 45.5604C71.0529 45.8222 71.0716 46.1032 71.155 46.4033L70.1977 46.6695C70.0797 46.2452 70.0649 45.8312 70.1534 45.4275C70.2418 45.0238 70.4401 44.6676 70.7482 44.359C71.0554 44.0468 71.4763 43.8164 72.011 43.6677C72.4871 43.5353 72.9177 43.5067 73.3028 43.5817C73.6869 43.6533 74.0109 43.8159 74.2747 44.0696C74.541 44.3189 74.7303 44.6454 74.8425 45.049C74.9039 45.2698 74.9283 45.5046 74.9157 45.7534C74.9056 45.9977 74.8662 46.2503 74.7975 46.511C74.7322 46.7707 74.6435 47.0332 74.5315 47.2985C74.4229 47.5629 74.3012 47.8271 74.1666 48.0913L72.7571 50.8414L76.5347 49.791ZM77.9917 46.3698L77.1711 46.3861L76.5056 42.5294L80.3712 41.4545L80.6172 42.3394L77.5641 43.1883L77.9063 45.3009C78.0222 45.1831 78.1758 45.0605 78.367 44.933C78.5617 44.8045 78.7971 44.7019 79.0731 44.6252C79.4215 44.5283 79.7505 44.5018 80.0601 44.5458C80.3687 44.5864 80.6503 44.6902 80.9049 44.8573C81.1629 45.0234 81.3868 45.2473 81.5767 45.529C81.7665 45.8107 81.9147 46.143 82.0211 46.5259C82.1219 46.8882 82.1644 47.235 82.1488 47.5664C82.1366 47.8968 82.0639 48.2033 81.9305 48.4856C81.7963 48.7645 81.5963 49.0078 81.3307 49.2155C81.0686 49.4222 80.7357 49.5816 80.332 49.6939C80.0285 49.7783 79.7289 49.817 79.4333 49.81C79.1403 49.7986 78.8628 49.7364 78.6009 49.6234C78.3416 49.5059 78.1086 49.3366 77.9021 49.1152C77.6981 48.8895 77.53 48.6055 77.3976 48.2632L78.3084 48.0099C78.4284 48.2813 78.5774 48.4963 78.7553 48.655C78.9333 48.8136 79.1362 48.9152 79.3641 48.9596C79.5945 48.9996 79.8442 48.9822 80.1133 48.9073C80.341 48.844 80.5318 48.7482 80.6857 48.6199C80.8395 48.4917 80.9562 48.3366 81.0357 48.1547C81.1152 47.9727 81.1568 47.7679 81.1603 47.5402C81.1674 47.3116 81.1344 47.0661 81.0615 46.8039C80.9953 46.5659 80.9011 46.3542 80.779 46.1689C80.6569 45.9836 80.5091 45.8333 80.3358 45.7179C80.166 45.6016 79.9764 45.528 79.7671 45.497C79.5568 45.4626 79.3309 45.4789 79.0894 45.5461C78.7686 45.6353 78.5374 45.746 78.3958 45.8783C78.2576 46.0097 78.1229 46.1735 77.9917 46.3698Z" fill="#696061"/>
</svg>
